<?xml version="1.0" encoding="UTF-8" standalone="no"?>
<!-- Created with Inkscape (http://www.inkscape.org/) -->

<svg
   xmlns:dc="http://purl.org/dc/elements/1.1/"
   xmlns:cc="http://creativecommons.org/ns#"
   xmlns:rdf="http://www.w3.org/1999/02/22-rdf-syntax-ns#"
   xmlns:svg="http://www.w3.org/2000/svg"
   xmlns="http://www.w3.org/2000/svg"
   xmlns:sodipodi="http://sodipodi.sourceforge.net/DTD/sodipodi-0.dtd"
   xmlns:inkscape="http://www.inkscape.org/namespaces/inkscape"
   width="210mm"
   height="297mm"
   viewBox="0 0 210 297"
   version="1.1"
   id="svg3721"
   inkscape:version="0.92.4 (5da689c313, 2019-01-14)"
   sodipodi:docname="LOGO.svg">
  <defs
     id="defs3715" />
  <sodipodi:namedview
     id="base"
     pagecolor="#ffffff"
     bordercolor="#666666"
     borderopacity="1.0"
     inkscape:pageopacity="0.0"
     inkscape:pageshadow="2"
     inkscape:zoom="0.35"
     inkscape:cx="400"
     inkscape:cy="560"
     inkscape:document-units="mm"
     inkscape:current-layer="layer1"
     showgrid="false"
     inkscape:window-width="1366"
     inkscape:window-height="706"
     inkscape:window-x="-8"
     inkscape:window-y="-8"
     inkscape:window-maximized="1" />
  <metadata
     id="metadata3718">
    <rdf:RDF>
      <cc:Work
         rdf:about="">
        <dc:format>image/svg+xml</dc:format>
        <dc:type
           rdf:resource="http://purl.org/dc/dcmitype/StillImage" />
        <dc:title></dc:title>
      </cc:Work>
    </rdf:RDF>
  </metadata>
  <g
     inkscape:label="Capa 1"
     inkscape:groupmode="layer"
     id="layer1">
    <text
       xml:space="preserve"
       style="font-style:normal;font-variant:normal;font-weight:normal;font-stretch:normal;font-size:10.58333302px;line-height:1.25;font-family:'Blackadder ITC';-inkscape-font-specification:'Blackadder ITC';letter-spacing:0px;word-spacing:0px;fill:#000000;fill-opacity:1;stroke:none;stroke-width:0.26458332"
       x="55.184521"
       y="55.095234"
       id="text3725"><tspan
         sodipodi:role="line"
         id="tspan3723"
         x="55.184521"
         y="55.095234"
         style="font-size:19.75555611px;line-height:3.25;stroke-width:0.26458332;fill:#008000">JADR</tspan></text>
    <flowRoot
       xml:space="preserve"
       id="flowRoot3727"
       style="fill:black;fill-opacity:1;stroke:none;font-family:'Blackadder ITC';font-style:normal;font-weight:normal;font-size:40px;line-height:1.25;letter-spacing:0px;word-spacing:0px;-inkscape-font-specification:'Blackadder ITC';font-stretch:normal;font-variant:normal"><flowRegion
         id="flowRegion3729"><rect
           id="rect3731"
           width="0"
           height="0"
           x="265.71429"
           y="225.37683" /></flowRegion><flowPara
         id="flowPara3733"></flowPara></flowRoot>    <path
       sodipodi:type="star"
       style="fill:#008000;stroke-width:0.26458332"
       id="path3735"
       sodipodi:sides="5"
       sodipodi:cx="43.089287"
       sodipodi:cy="71.726189"
       sodipodi:r1="11.735537"
       sodipodi:r2="5.8677678"
       sodipodi:arg1="2.8809903"
       sodipodi:arg2="3.5093088"
       inkscape:flatsided="false"
       inkscape:rounded="0"
       inkscape:randomized="0"
       d="m 31.750001,74.749998 5.863774,-5.133185 -0.904333,-7.740517 6.693954,3.990538 7.082215,-3.252023 -1.726682,7.599473 5.281383,5.730657 -7.761103,0.706194 -3.818141,6.793763 -3.069943,-7.163021 z"
       inkscape:transform-center-x="0.19413065"
       inkscape:transform-center-y="0.93440762" />
    <path
       sodipodi:type="star"
       style="fill:#008000;stroke-width:0.26458332"
       id="path3737"
       sodipodi:sides="5"
       sodipodi:cx="130.77975"
       sodipodi:cy="33.92857"
       sodipodi:r1="11.514323"
       sodipodi:r2="5.7571616"
       sodipodi:arg1="-2.7367009"
       sodipodi:arg2="-2.1083823"
       inkscape:flatsided="false"
       inkscape:rounded="0"
       inkscape:randomized="0"
       d="m 120.19642,29.392856 7.6353,-0.409385 3.99132,-6.521862 2.74879,7.135093 7.43605,1.78061 -5.93646,4.819115 0.60441,7.622339 -6.41772,-4.156716 -7.06251,2.930255 1.97009,-7.388107 z"
       inkscape:transform-center-x="-0.32239293"
       inkscape:transform-center-y="-0.78838228" />
    <rect
       style="fill:#241c1c;stroke-width:0.26458332"
       id="rect3739"
       width="188.23215"
       height="7.5595236"
       x="12.095239"
       y="83.821426" />
    <rect
       style="fill:#0000ff;stroke-width:0.26458332"
       id="rect3744"
       width="173.86905"
       height="6.8035736"
       x="12.095239"
       y="91.380951" />
    <rect
       style="fill:#ff0000;stroke-width:0.26458332"
       id="rect3746"
       width="159.50595"
       height="9.0714283"
       x="12.095239"
       y="98.184525" />
    <path
       sodipodi:type="spiral"
       style="fill:#ffcc00;fill-rule:evenodd;stroke:#000000;stroke-width:0.26458332"
       id="path3748"
       sodipodi:cx="182.18451"
       sodipodi:cy="16.541666"
       sodipodi:expansion="1"
       sodipodi:revolution="3"
       sodipodi:radius="15.510845"
       sodipodi:argument="-16.52783"
       sodipodi:t0="0"
       d="m 182.18451,16.541666 c -0.53063,0.568534 -1.02817,-0.434787 -0.94494,-0.881945 0.22554,-1.211771 1.75921,-1.458205 2.70883,-1.007935 1.69865,0.805427 1.97143,3.039644 1.07093,4.535714 -1.32153,2.195544 -4.33719,2.499157 -6.3626,1.133926 -2.69955,-1.819638 -3.03301,-5.640777 -1.19692,-8.189484 2.31053,-3.207287 6.94723,-3.5700288 10.01637,-1.259916 3.71713,2.797855 4.10887,8.255307 1.32291,11.843254 -3.28316,4.228271 -9.56439,4.648872 -13.67014,1.385907 -4.74025,-3.767224 -5.18963,-10.874137 -1.4489,-15.497024 4.25046,-5.2528183 12.18436,-5.7309342 17.32391,-1.5118976 5.76579,4.7331216 6.27262,13.4949256 1.57489,19.1507936 -5.21537,6.279084 -14.80575,6.814601 -20.97768,1.637888" />
    <path
       sodipodi:type="spiral"
       style="fill:#808000;fill-rule:evenodd;stroke:#000000;stroke-width:0.26458332"
       id="path3750"
       sodipodi:cx="16.630953"
       sodipodi:cy="13.517858"
       sodipodi:expansion="1"
       sodipodi:revolution="3.0412836"
       sodipodi:radius="4.3351598"
       sodipodi:argument="-18.064157"
       sodipodi:t0="0"
       d="m 16.630953,13.517858 c 0.151609,0.151609 -0.129568,0.279164 -0.251984,0.251984 -0.331742,-0.07366 -0.385072,-0.498577 -0.251984,-0.755953 0.238062,-0.460384 0.856257,-0.514318 1.25992,-0.251984 0.592392,0.384986 0.647396,1.218791 0.251984,1.763889 -0.527022,0.726531 -1.583046,0.782106 -2.267857,0.251984 -0.861766,-0.667104 -0.917659,-1.948122 -0.251984,-2.771826 0.806223,-0.997615 2.313661,-1.053702 3.275794,-0.251983 1.133841,0.944798 1.190052,2.679488 0.251983,3.779762 -1.083037,1.270311 -3.045506,1.326607 -4.28373,0.251983 -1.406948,-1.221056 -1.463304,-3.411661 -0.251983,-4.787698 1.35892,-1.5437064 3.777915,-1.6001068 5.291667,-0.251983 1.680552,1.496673 1.736986,4.144241 0.251983,5.795635 -0.249318,0.277253 -0.534979,0.521526 -0.8472,0.725321"
       transform="matrix(3.7820111,0,0,1.5584865,-36.669843,-5.2799863)" />
  </g>
</svg>
